<?xml version="1.0" encoding="UTF-8" standalone="no"?>
<!-- Created with Inkscape (http://www.inkscape.org/) -->

<svg
   xmlns:dc="http://purl.org/dc/elements/1.1/"
   xmlns:cc="http://creativecommons.org/ns#"
   xmlns:rdf="http://www.w3.org/1999/02/22-rdf-syntax-ns#"
   xmlns:svg="http://www.w3.org/2000/svg"
   xmlns="http://www.w3.org/2000/svg"
   xmlns:sodipodi="http://sodipodi.sourceforge.net/DTD/sodipodi-0.dtd"
   xmlns:inkscape="http://www.inkscape.org/namespaces/inkscape"
   width="48"
   height="24"
   id="svg2"
   version="1.1"
   inkscape:version="0.48.4 r9939"
   sodipodi:docname="New document 1">
  <defs
     id="defs4" />
  <sodipodi:namedview
     id="base"
     pagecolor="#ffffff"
     bordercolor="#666666"
     borderopacity="1.0"
     inkscape:pageopacity="0.0"
     inkscape:pageshadow="2"
     inkscape:zoom="21.625"
     inkscape:cx="24"
     inkscape:cy="12"
     inkscape:document-units="px"
     inkscape:current-layer="layer1"
     showgrid="false" />
  <metadata
     id="metadata7">
    <rdf:RDF>
      <cc:Work
         rdf:about="">
        <dc:format>image/svg+xml</dc:format>
        <dc:type
           rdf:resource="http://purl.org/dc/dcmitype/StillImage" />
        <dc:title></dc:title>
      </cc:Work>
    </rdf:RDF>
  </metadata>
  <g
     inkscape:label="Layer 1"
     inkscape:groupmode="layer"
     id="layer1"
     transform="translate(0,-1028.3622)">
    <path
       style="fill:#999999;fill-opacity:1;fill-rule:nonzero;stroke:#808080"
       d="M 10.875 9.15625 C 9.2690654 9.15625 7.96875 10.391044 7.96875 11.9375 C 7.96875 11.948108 7.9686278 11.95817 7.96875 11.96875 C 6.6752715 12.165353 5.71875 12.953123 5.71875 13.875 C 5.71875 14.945623 7.0190654 15.8125 8.625 15.8125 C 9.5780268 15.8125 10.407174 15.503536 10.9375 15.03125 C 11.446706 15.842815 12.349757 16.40625 13.40625 16.40625 C 15.012185 16.40625 16.3125 15.140206 16.3125 13.59375 C 16.3125 13.540219 16.315578 13.49029 16.3125 13.4375 C 17.177004 13.173619 17.78125 12.581579 17.78125 11.90625 C 17.78125 10.98283 16.66638 10.25 15.28125 10.25 C 14.588685 10.25 13.953859 10.447428 13.5 10.75 C 13.034965 9.7998162 12.038122 9.15625 10.875 9.15625 z "
       transform="translate(0,1028.3622)"
       id="path2991" />
    <path
       style="fill:#999999;fill-opacity:1;fill-rule:nonzero;stroke:#808080"
       d="M 35.25 11.25 C 34.599278 11.284634 33.988812 11.617658 33.59375 12.15625 C 32.984088 12.126898 32.464986 12.292257 32.21875 12.71875 C 31.796839 13.449521 32.341344 14.554634 33.4375 15.1875 C 33.763884 15.375938 34.11217 15.498745 34.4375 15.5625 C 34.569332 15.687004 34.710577 15.81132 34.875 15.90625 C 35.923726 16.511732 37.229823 16.200391 37.875 15.25 C 38.538753 15.381492 39.150064 15.193728 39.40625 14.75 C 39.770151 14.119705 39.289192 13.170851 38.34375 12.625 C 38.032699 12.445415 37.71344 12.360967 37.40625 12.3125 C 37.342565 12.260115 37.289014 12.202629 37.21875 12.15625 C 37.037134 11.922441 36.805289 11.720717 36.53125 11.5625 C 36.120191 11.325175 35.685751 11.226808 35.25 11.25 z "
       transform="translate(0,1028.3622)"
       id="path3013" />
  </g>
</svg>
