<?xml version="1.0" encoding="UTF-8" standalone="no"?>
<!-- Created with Inkscape (http://www.inkscape.org/) -->

<svg
   xmlns:dc="http://purl.org/dc/elements/1.1/"
   xmlns:cc="http://creativecommons.org/ns#"
   xmlns:rdf="http://www.w3.org/1999/02/22-rdf-syntax-ns#"
   xmlns:svg="http://www.w3.org/2000/svg"
   xmlns="http://www.w3.org/2000/svg"
   xmlns:xlink="http://www.w3.org/1999/xlink"
   xmlns:sodipodi="http://sodipodi.sourceforge.net/DTD/sodipodi-0.dtd"
   xmlns:inkscape="http://www.inkscape.org/namespaces/inkscape"
   width="30.068422"
   height="59.98431"
   id="svg3925"
   version="1.1"
   inkscape:version="0.48.4 r9939"
   sodipodi:docname="player.svg"
   inkscape:export-filename="C:\Users\Jake\Documents\Sharpdevelop projects\SNHU\SNHU\assets\player.png"
   inkscape:export-xdpi="90"
   inkscape:export-ydpi="90">
  <defs
     id="defs3927">
    <linearGradient
       inkscape:collect="always"
       id="linearGradient4486">
      <stop
         style="stop-color:#b80000;stop-opacity:1;"
         offset="0"
         id="stop4488" />
      <stop
         style="stop-color:#a00000;stop-opacity:1"
         offset="1"
         id="stop4490" />
    </linearGradient>
    <linearGradient
       inkscape:collect="always"
       xlink:href="#linearGradient4486"
       id="linearGradient4492"
       x1="-44.579285"
       y1="19.346298"
       x2="-57.768837"
       y2="20.198212"
       gradientUnits="userSpaceOnUse" />
    <linearGradient
       inkscape:collect="always"
       xlink:href="#linearGradient4486"
       id="linearGradient4496"
       gradientUnits="userSpaceOnUse"
       x1="-44.579285"
       y1="19.346298"
       x2="-57.768837"
       y2="20.198212" />
  </defs>
  <sodipodi:namedview
     id="base"
     pagecolor="#ffffff"
     bordercolor="#666666"
     borderopacity="1.0"
     inkscape:pageopacity="0.0"
     inkscape:pageshadow="2"
     inkscape:zoom="4.2638538"
     inkscape:cx="-7.6562915"
     inkscape:cy="38.548098"
     inkscape:document-units="px"
     inkscape:current-layer="layer1"
     showgrid="false"
     inkscape:window-width="1366"
     inkscape:window-height="706"
     inkscape:window-x="-8"
     inkscape:window-y="-8"
     inkscape:window-maximized="1"
     showguides="true"
     inkscape:guide-bbox="true"
     fit-margin-top="0"
     fit-margin-left="0"
     fit-margin-right="0"
     fit-margin-bottom="0" />
  <metadata
     id="metadata3930">
    <rdf:RDF>
      <cc:Work
         rdf:about="">
        <dc:format>image/svg+xml</dc:format>
        <dc:type
           rdf:resource="http://purl.org/dc/dcmitype/StillImage" />
        <dc:title />
      </cc:Work>
    </rdf:RDF>
  </metadata>
  <g
     inkscape:label="Layer 1"
     inkscape:groupmode="layer"
     id="layer1"
     transform="translate(-0.99407743,-992.19339)">
    <rect
       style="fill:#000000;fill-opacity:1;stroke:none"
       id="rect3939"
       width="18.161303"
       height="36.532196"
       x="5.2847381"
       y="1015.6455" />
    <path
       style="fill:#e3e3e3;fill-opacity:1;stroke:#000000;stroke-width:1.06298053;stroke-opacity:1"
       d="m 6.4564346,996.8258 c 8.1470624,-7.69746 17.7707364,-2.21408 17.7707364,-2.21408 l 6.24905,12.63868 -4.686787,11.7161 -12.595742,4.6127 -10.4476309,-4.6127 c 0,0 -4.4366888,-14.4432 3.7103735,-22.1407 z"
       id="rect3933"
       inkscape:connector-curvature="0"
       sodipodi:nodetypes="scccccs" />
    <path
       sodipodi:type="arc"
       style="fill:#000000;fill-opacity:1;stroke:#000000;stroke-width:1;stroke-miterlimit:4;stroke-opacity:1;stroke-dasharray:none"
       id="path4460"
       sodipodi:cx="19.066629"
       sodipodi:cy="12.103413"
       sodipodi:rx="4.1668792"
       sodipodi:ry="4.1668792"
       d="m 23.233509,12.103413 c 0,2.301303 -1.865576,4.166879 -4.16688,4.166879 -2.301303,0 -4.166879,-1.865576 -4.166879,-4.166879 0,-2.3013042 1.865576,-4.1668795 4.166879,-4.1668795 2.301304,0 4.16688,1.8655753 4.16688,4.1668795 z"
       transform="matrix(1.0935839,0,0,1.0332337,-4.4794033,990.47878)" />
    <path
       transform="matrix(0.76811062,0,0,0.72572212,7.9401341,993.41796)"
       d="m 23.233509,12.103413 c 0,2.301303 -1.865576,4.166879 -4.16688,4.166879 -2.301303,0 -4.166879,-1.865576 -4.166879,-4.166879 0,-2.3013042 1.865576,-4.1668795 4.166879,-4.1668795 2.301304,0 4.16688,1.8655753 4.16688,4.1668795 z"
       sodipodi:ry="4.1668792"
       sodipodi:rx="4.1668792"
       sodipodi:cy="12.103413"
       sodipodi:cx="19.066629"
       id="path4462"
       style="fill:#000000;fill-opacity:1;stroke:#000000;stroke-width:1;stroke-miterlimit:4;stroke-opacity:1;stroke-dasharray:none"
       sodipodi:type="arc" />
    <path
       transform="matrix(0.93308023,0,0,0.8815876,-1.0746074,992.31423)"
       d="m 23.233509,12.103413 c 0,2.301303 -1.865576,4.166879 -4.16688,4.166879 -2.301303,0 -4.166879,-1.865576 -4.166879,-4.166879 0,-2.3013042 1.865576,-4.1668795 4.166879,-4.1668795 2.301304,0 4.16688,1.8655753 4.16688,4.1668795 z"
       sodipodi:ry="4.1668792"
       sodipodi:rx="4.1668792"
       sodipodi:cy="12.103413"
       sodipodi:cx="19.066629"
       id="path4464"
       style="fill:#ffffff;fill-opacity:1;stroke:none"
       sodipodi:type="arc" />
    <path
       sodipodi:type="arc"
       style="fill:#ffffff;fill-opacity:1;stroke:none"
       id="path4466"
       sodipodi:cx="19.066629"
       sodipodi:cy="12.103413"
       sodipodi:rx="4.1668792"
       sodipodi:ry="4.1668792"
       d="m 23.233509,12.103413 c 0,2.301303 -1.865576,4.166879 -4.16688,4.166879 -2.301303,0 -4.166879,-1.865576 -4.166879,-4.166879 0,-2.3013042 1.865576,-4.1668795 4.166879,-4.1668795 2.301304,0 4.16688,1.8655753 4.16688,4.1668795 z"
       transform="matrix(0.65537624,0,0,0.61920892,9.5221321,994.82202)" />
    <path
       sodipodi:type="arc"
       style="fill:#000000;fill-opacity:1;stroke:none"
       id="path4468"
       sodipodi:cx="19.066629"
       sodipodi:cy="12.103413"
       sodipodi:rx="4.1668792"
       sodipodi:ry="4.1668792"
       d="m 23.233509,12.103413 c 0,2.301303 -1.865576,4.166879 -4.16688,4.166879 -2.301303,0 -4.166879,-1.865576 -4.166879,-4.166879 0,-2.3013042 1.865576,-4.1668795 4.166879,-4.1668795 2.301304,0 4.16688,1.8655753 4.16688,4.1668795 z"
       transform="matrix(0.59068574,0,0,0.5580884,6.2141526,996.27579)" />
    <path
       transform="matrix(0.41488541,0,0,0.39198974,14.728777,997.44822)"
       d="m 23.233509,12.103413 c 0,2.301303 -1.865576,4.166879 -4.16688,4.166879 -2.301303,0 -4.166879,-1.865576 -4.166879,-4.166879 0,-2.3013042 1.865576,-4.1668795 4.166879,-4.1668795 2.301304,0 4.16688,1.8655753 4.16688,4.1668795 z"
       sodipodi:ry="4.1668792"
       sodipodi:rx="4.1668792"
       sodipodi:cy="12.103413"
       sodipodi:cx="19.066629"
       id="path4470"
       style="fill:#000000;fill-opacity:1;stroke:none"
       sodipodi:type="arc" />
    <rect
       style="fill:#000000;fill-opacity:1;stroke:none"
       id="rect4472"
       width="15.23206"
       height="6.9189763"
       x="9.3856773"
       y="1009.5566" />
    <path
       sodipodi:type="arc"
       style="fill:#d40000;fill-opacity:1;stroke:none"
       id="path4474"
       sodipodi:cx="-46.42857"
       sodipodi:cy="23.285715"
       sodipodi:rx="11.071428"
       sodipodi:ry="11.071428"
       d="m -35.357141,23.285715 c 0,6.114581 -4.956848,11.071428 -11.071429,11.071428 -6.114581,0 -11.071428,-4.956847 -11.071428,-11.071428 0,-6.114581 4.956847,-11.071428 11.071428,-11.071428 6.114581,0 11.071429,4.956847 11.071429,11.071428 z"
       transform="matrix(1.301051,0,0,1.301051,30.435224,977.57189)"
       inkscape:export-filename="C:\Users\Jake\Documents\Sharpdevelop projects\SNHU\SNHU\assets\glove2.png"
       inkscape:export-xdpi="90"
       inkscape:export-ydpi="90" />
    <path
       sodipodi:type="arc"
       style="fill:#820000;fill-opacity:1;stroke:none"
       id="path4480"
       sodipodi:cx="-46.42857"
       sodipodi:cy="23.285715"
       sodipodi:rx="11.071428"
       sodipodi:ry="11.071428"
       d="m -35.357141,23.285715 c 0,6.114581 -4.956848,11.071428 -11.071429,11.071428 -6.114581,0 -11.071428,-4.956847 -11.071428,-11.071428 0,-6.114581 4.956847,-11.071428 11.071428,-11.071428 6.114581,0 11.071429,4.956847 11.071429,11.071428 z"
       transform="matrix(0.43223639,0.31281416,-0.54263682,0.74979785,-118.17204,1011.7529)"
       inkscape:export-filename="C:\Users\Jake\Documents\Sharpdevelop projects\SNHU\SNHU\assets\glove1.png"
       inkscape:export-xdpi="90"
       inkscape:export-ydpi="90" />
    <path
       transform="matrix(0.90857775,-0.27745265,0.37998036,1.2443265,7.5294293,963.79007)"
       d="m -35.357141,23.285715 c 0,6.114581 -4.956848,11.071428 -11.071429,11.071428 -6.114581,0 -11.071428,-4.956847 -11.071428,-11.071428 0,-6.114581 4.956847,-11.071428 11.071428,-11.071428 6.114581,0 11.071429,4.956847 11.071429,11.071428 z"
       sodipodi:ry="11.071428"
       sodipodi:rx="11.071428"
       sodipodi:cy="23.285715"
       sodipodi:cx="-46.42857"
       id="path4483"
       style="fill:url(#linearGradient4492);fill-opacity:1;stroke:none"
       sodipodi:type="arc"
       inkscape:export-filename="C:\Users\Jake\Documents\Sharpdevelop projects\SNHU\SNHU\assets\glove2.png"
       inkscape:export-xdpi="90"
       inkscape:export-ydpi="90" />
    <path
       transform="matrix(0.49087085,-0.15287344,0.26518863,0.85151065,-21.46725,978.27029)"
       d="m -35.357141,23.285715 c 0,6.114581 -4.956848,11.071428 -11.071429,11.071428 -6.114581,0 -11.071428,-4.956847 -11.071428,-11.071428 0,-6.114581 4.956847,-11.071428 11.071428,-11.071428 6.114581,0 11.071429,4.956847 11.071429,11.071428 z"
       sodipodi:ry="11.071428"
       sodipodi:rx="11.071428"
       sodipodi:cy="23.285715"
       sodipodi:cx="-46.42857"
       id="path4476"
       style="fill:#820000;fill-opacity:1;stroke:none"
       sodipodi:type="arc"
       inkscape:export-filename="C:\Users\Jake\Documents\Sharpdevelop projects\SNHU\SNHU\assets\glove2.png"
       inkscape:export-xdpi="90"
       inkscape:export-ydpi="90" />
    <path
       sodipodi:type="arc"
       style="fill:url(#linearGradient4496);fill-opacity:1;stroke:none"
       id="path4494"
       sodipodi:cx="-46.42857"
       sodipodi:cy="23.285715"
       sodipodi:rx="13.771934"
       sodipodi:ry="11.071428"
       d="m -32.656636,23.285715 c 0,6.114581 -6.165905,11.071428 -13.771934,11.071428 -7.606029,0 -13.771933,-4.956847 -13.771933,-11.071428 0,-6.114581 6.165904,-11.071428 13.771933,-11.071428 7.606029,0 13.771934,4.956847 13.771934,11.071428 z"
       transform="matrix(0.94291522,-0.28793829,0.39434079,1.2913528,-110.32145,979.71749)"
       inkscape:export-filename="C:\Users\Jake\Documents\Sharpdevelop projects\SNHU\SNHU\assets\glove1.png"
       inkscape:export-xdpi="90"
       inkscape:export-ydpi="90" />
  </g>
</svg>
