<?xml version="1.0" encoding="UTF-8" standalone="no"?>
<!-- Created with Inkscape (http://www.inkscape.org/) -->

<svg
   xmlns:dc="http://purl.org/dc/elements/1.1/"
   xmlns:cc="http://creativecommons.org/ns#"
   xmlns:rdf="http://www.w3.org/1999/02/22-rdf-syntax-ns#"
   xmlns:svg="http://www.w3.org/2000/svg"
   xmlns="http://www.w3.org/2000/svg"
   xmlns:xlink="http://www.w3.org/1999/xlink"
   xmlns:sodipodi="http://sodipodi.sourceforge.net/DTD/sodipodi-0.dtd"
   xmlns:inkscape="http://www.inkscape.org/namespaces/inkscape"
   width="40"
   height="80"
   id="svg3925"
   version="1.1"
   inkscape:version="0.48.4 r9939"
   sodipodi:docname="player.svg"
   inkscape:export-filename="C:\Users\Jake\Documents\Sharpdevelop projects\SNHU\SNHU\assets\player.png"
   inkscape:export-xdpi="90"
   inkscape:export-ydpi="90">
  <defs
     id="defs3927">
    <linearGradient
       inkscape:collect="always"
       id="linearGradient4486">
      <stop
         style="stop-color:#b80000;stop-opacity:1;"
         offset="0"
         id="stop4488" />
      <stop
         style="stop-color:#a00000;stop-opacity:1"
         offset="1"
         id="stop4490" />
    </linearGradient>
    <linearGradient
       inkscape:collect="always"
       xlink:href="#linearGradient4486"
       id="linearGradient4492"
       x1="-44.579285"
       y1="19.346298"
       x2="-57.768837"
       y2="20.198212"
       gradientUnits="userSpaceOnUse" />
    <linearGradient
       inkscape:collect="always"
       xlink:href="#linearGradient4486"
       id="linearGradient4496"
       gradientUnits="userSpaceOnUse"
       x1="-44.579285"
       y1="19.346298"
       x2="-57.768837"
       y2="20.198212" />
  </defs>
  <sodipodi:namedview
     id="base"
     pagecolor="#ffffff"
     bordercolor="#666666"
     borderopacity="1.0"
     inkscape:pageopacity="0.0"
     inkscape:pageshadow="2"
     inkscape:zoom="2.1319269"
     inkscape:cx="-78.902767"
     inkscape:cy="-3.6197616"
     inkscape:document-units="px"
     inkscape:current-layer="layer1"
     showgrid="false"
     inkscape:window-width="1366"
     inkscape:window-height="706"
     inkscape:window-x="-8"
     inkscape:window-y="-8"
     inkscape:window-maximized="1"
     showguides="true"
     inkscape:guide-bbox="true" />
  <metadata
     id="metadata3930">
    <rdf:RDF>
      <cc:Work
         rdf:about="">
        <dc:format>image/svg+xml</dc:format>
        <dc:type
           rdf:resource="http://purl.org/dc/dcmitype/StillImage" />
        <dc:title></dc:title>
      </cc:Work>
    </rdf:RDF>
  </metadata>
  <g
     inkscape:label="Layer 1"
     inkscape:groupmode="layer"
     id="layer1"
     transform="translate(0,-972.36218)">
    <rect
       style="fill:#000000;fill-opacity:1;stroke:none"
       id="rect3939"
       width="23.153927"
       height="47.465374"
       x="6.4661798"
       y="1004.7166" />
    <path
       style="fill:#e3e3e3;fill-opacity:1;stroke:#000000;stroke-width:1.36809003;stroke-opacity:1"
       d="m 7.9599806,980.26459 c 10.3867264,-10.00112 22.6559934,-2.8767 22.6559934,-2.8767 l 7.96694,16.42103 -5.975206,15.22248 -16.058368,5.9932 -13.3197309,-5.9932 c 0,0 -5.6563546,-18.76569 4.7303715,-28.76681 z"
       id="rect3933"
       inkscape:connector-curvature="0"
       sodipodi:nodetypes="scccccs" />
    <path
       sodipodi:type="arc"
       style="fill:#000000;fill-opacity:1;stroke:#000000;stroke-width:1;stroke-miterlimit:4;stroke-opacity:1;stroke-dasharray:none"
       id="path4460"
       sodipodi:cx="19.066629"
       sodipodi:cy="12.103413"
       sodipodi:rx="4.1668792"
       sodipodi:ry="4.1668792"
       d="m 23.233509,12.103413 a 4.1668792,4.1668792 0 1 1 -8.333759,0 4.1668792,4.1668792 0 1 1 8.333759,0 z"
       transform="matrix(1.3942149,0,0,1.342455,-5.9821679,972.01807)" />
    <path
       transform="matrix(0.97926766,0,0,0.9429127,9.8515558,975.83686)"
       d="m 23.233509,12.103413 a 4.1668792,4.1668792 0 1 1 -8.333759,0 4.1668792,4.1668792 0 1 1 8.333759,0 z"
       sodipodi:ry="4.1668792"
       sodipodi:rx="4.1668792"
       sodipodi:cy="12.103413"
       sodipodi:cx="19.066629"
       id="path4462"
       style="fill:#000000;fill-opacity:1;stroke:#000000;stroke-width:1;stroke-miterlimit:4;stroke-opacity:1;stroke-dasharray:none"
       sodipodi:type="arc" />
    <path
       transform="matrix(1.1895882,0,0,1.1454249,-1.6413783,974.40282)"
       d="m 23.233509,12.103413 a 4.1668792,4.1668792 0 1 1 -8.333759,0 4.1668792,4.1668792 0 1 1 8.333759,0 z"
       sodipodi:ry="4.1668792"
       sodipodi:rx="4.1668792"
       sodipodi:cy="12.103413"
       sodipodi:cx="19.066629"
       id="path4464"
       style="fill:#ffffff;fill-opacity:1;stroke:none"
       sodipodi:type="arc" />
    <path
       sodipodi:type="arc"
       style="fill:#ffffff;fill-opacity:1;stroke:none"
       id="path4466"
       sodipodi:cx="19.066629"
       sodipodi:cy="12.103413"
       sodipodi:rx="4.1668792"
       sodipodi:ry="4.1668792"
       d="m 23.233509,12.103413 a 4.1668792,4.1668792 0 1 1 -8.333759,0 4.1668792,4.1668792 0 1 1 8.333759,0 z"
       transform="matrix(0.83554211,0,0,0.80452275,11.868452,977.66112)" />
    <path
       sodipodi:type="arc"
       style="fill:#000000;fill-opacity:1;stroke:none"
       id="path4468"
       sodipodi:cx="19.066629"
       sodipodi:cy="12.103413"
       sodipodi:rx="4.1668792"
       sodipodi:ry="4.1668792"
       d="m 23.233509,12.103413 a 4.1668792,4.1668792 0 1 1 -8.333759,0 4.1668792,4.1668792 0 1 1 8.333759,0 z"
       transform="matrix(0.75306788,0,0,0.72511038,7.6510943,979.54998)" />
    <path
       transform="matrix(0.52893926,0,0,0.50930252,18.506427,981.07327)"
       d="m 23.233509,12.103413 a 4.1668792,4.1668792 0 1 1 -8.333759,0 4.1668792,4.1668792 0 1 1 8.333759,0 z"
       sodipodi:ry="4.1668792"
       sodipodi:rx="4.1668792"
       sodipodi:cy="12.103413"
       sodipodi:cx="19.066629"
       id="path4470"
       style="fill:#000000;fill-opacity:1;stroke:none"
       sodipodi:type="arc" />
    <rect
       style="fill:#000000;fill-opacity:1;stroke:none"
       id="rect4472"
       width="19.419422"
       height="8.9896536"
       x="11.694486"
       y="996.80548" />
    <path
       sodipodi:type="arc"
       style="fill:#d40000;fill-opacity:1;stroke:none"
       id="path4474"
       sodipodi:cx="-46.42857"
       sodipodi:cy="23.285715"
       sodipodi:rx="11.071428"
       sodipodi:ry="11.071428"
       d="m -35.357141,23.285715 a 11.071428,11.071428 0 1 1 -22.142857,0 11.071428,11.071428 0 1 1 22.142857,0 z"
       transform="matrix(1.301051,0,0,1.301051,30.435224,977.57189)"
       inkscape:export-filename="C:\Users\Jake\Documents\Sharpdevelop projects\SNHU\SNHU\assets\glove2.png"
       inkscape:export-xdpi="90"
       inkscape:export-ydpi="90" />
    <path
       sodipodi:type="arc"
       style="fill:#820000;fill-opacity:1;stroke:none"
       id="path4480"
       sodipodi:cx="-46.42857"
       sodipodi:cy="23.285715"
       sodipodi:rx="11.071428"
       sodipodi:ry="11.071428"
       d="m -35.357141,23.285715 a 11.071428,11.071428 0 1 1 -22.142857,0 11.071428,11.071428 0 1 1 22.142857,0 z"
       transform="matrix(0.43223639,0.31281416,-0.54263682,0.74979785,-118.17204,1011.7529)"
       inkscape:export-filename="C:\Users\Jake\Documents\Sharpdevelop projects\SNHU\SNHU\assets\glove1.png"
       inkscape:export-xdpi="90"
       inkscape:export-ydpi="90" />
    <path
       transform="matrix(0.90857775,-0.27745265,0.37998036,1.2443265,7.5294293,963.79007)"
       d="m -35.357141,23.285715 a 11.071428,11.071428 0 1 1 -22.142857,0 11.071428,11.071428 0 1 1 22.142857,0 z"
       sodipodi:ry="11.071428"
       sodipodi:rx="11.071428"
       sodipodi:cy="23.285715"
       sodipodi:cx="-46.42857"
       id="path4483"
       style="fill:url(#linearGradient4492);fill-opacity:1;stroke:none"
       sodipodi:type="arc"
       inkscape:export-filename="C:\Users\Jake\Documents\Sharpdevelop projects\SNHU\SNHU\assets\glove2.png"
       inkscape:export-xdpi="90"
       inkscape:export-ydpi="90" />
    <path
       transform="matrix(0.49087085,-0.15287344,0.26518863,0.85151065,-21.46725,978.27029)"
       d="m -35.357141,23.285715 a 11.071428,11.071428 0 1 1 -22.142857,0 11.071428,11.071428 0 1 1 22.142857,0 z"
       sodipodi:ry="11.071428"
       sodipodi:rx="11.071428"
       sodipodi:cy="23.285715"
       sodipodi:cx="-46.42857"
       id="path4476"
       style="fill:#820000;fill-opacity:1;stroke:none"
       sodipodi:type="arc"
       inkscape:export-filename="C:\Users\Jake\Documents\Sharpdevelop projects\SNHU\SNHU\assets\glove2.png"
       inkscape:export-xdpi="90"
       inkscape:export-ydpi="90" />
    <path
       sodipodi:type="arc"
       style="fill:url(#linearGradient4496);fill-opacity:1;stroke:none"
       id="path4494"
       sodipodi:cx="-46.42857"
       sodipodi:cy="23.285715"
       sodipodi:rx="13.771934"
       sodipodi:ry="11.071428"
       d="m -32.656636,23.285715 a 13.771934,11.071428 0 1 1 -27.543867,0 13.771934,11.071428 0 1 1 27.543867,0 z"
       transform="matrix(0.94291522,-0.28793829,0.39434079,1.2913528,-110.32145,979.71749)"
       inkscape:export-filename="C:\Users\Jake\Documents\Sharpdevelop projects\SNHU\SNHU\assets\glove1.png"
       inkscape:export-xdpi="90"
       inkscape:export-ydpi="90" />
  </g>
</svg>
